<svg xmlns="http://www.w3.org/2000/svg" viewBox="0 0 21.56 33.32"><defs><style>.cls-1{fill:#010101;}</style></defs><title>Recurso 3</title><g id="Capa_2" data-name="Capa 2"><g id="Layer_1" data-name="Layer 1"><path class="cls-1" d="M17.29,11.49a5,5,0,0,1-.06.95,2.36,2.36,0,0,0,0-.28,8.36,8.36,0,0,1-.55,2l.1-.26a9.23,9.23,0,0,1-.6,1.17c-.07.1-.13.2-.2.29l-.09.13s-.11.12-.12.17.17-.21.06-.09a.18.18,0,0,1,0,.07l-.12.15c-.09.1-.17.2-.26.29s-.39.39-.6.58l-.31.25-.13.11c.26-.22.06-.05,0,0a10.89,10.89,0,0,1-1.29.83,17.11,17.11,0,0,1-1.55.76l.26-.11a50.71,50.71,0,0,1-5.12,1.62,9.21,9.21,0,0,0-1.11.4,5.88,5.88,0,0,0-1.4.88,5.66,5.66,0,0,0-1.53,2,5,5,0,0,0-.47,1.34,1.12,1.12,0,0,0,.11.82A1.05,1.05,0,0,0,3.74,26a1,1,0,0,0,.49-.63,4.36,4.36,0,0,1,.29-.93l-.11.25A5.75,5.75,0,0,1,4.75,24,3.17,3.17,0,0,1,5,23.65L5,23.57c.07-.09-.18.23-.08.11a1.46,1.46,0,0,1,.16-.19c.1-.12.21-.23.32-.34L5.63,23l.1-.09c.09-.08-.22.16-.08.07a4.7,4.7,0,0,1,1-.57l-.26.1a24.35,24.35,0,0,1,2.91-.87,24.73,24.73,0,0,0,4.09-1.5,11.44,11.44,0,0,0,3.83-2.84,9.2,9.2,0,0,0,1.93-3.7A10.65,10.65,0,0,0,19.39,12a4.51,4.51,0,0,0,0-.52,1.08,1.08,0,0,0-1.06-1.06,1,1,0,0,0-1.05,1.05Z"/><path class="cls-1" d="M4.26,27.63V8.39c0-.88,0-1.77,0-2.65v0A1.06,1.06,0,0,0,3.2,4.64,1.07,1.07,0,0,0,2.14,5.7V24.94c0,.88,0,1.77,0,2.65v0a1.06,1.06,0,1,0,2.12,0Z"/><circle class="cls-1" cx="18.35" cy="8.99" r="2.5"/><path class="cls-1" d="M20.14,9c0,.07,0,.14,0,.2a.22.22,0,0,1,0,.08c0,.1,0-.14,0,0a2,2,0,0,1-.08.35,1,1,0,0,1-.07.18s.07-.14,0-.07a.36.36,0,0,0,0,.09l-.18.3s0,.07-.05.07.11-.13,0,0l-.11.13-.11.11-.08.06c-.07.07,0,0,0,0s-.24.16-.29.2l-.15.07c-.09,0,0,0,.05,0l-.09,0a2,2,0,0,1-.35.1H18.6c-.14,0,0,0,0,0a.64.64,0,0,1-.2,0,2.17,2.17,0,0,1-.36,0h.06l-.09,0-.19,0-.18-.06-.07,0c-.08,0,.12.06,0,0s-.21-.1-.3-.16-.15-.08-.15-.11.11.1.05,0l-.07-.06a2.83,2.83,0,0,1-.24-.25c-.09-.1,0,0,0,0l0-.08-.09-.13-.08-.14,0-.09c-.05-.1,0,0,0,0s-.1-.28-.11-.33a1,1,0,0,0,0-.17c0-.05,0-.1,0,.05,0,0,0-.07,0-.1a2.16,2.16,0,0,1,0-.36V8.76c0-.14,0,.05,0,0s0-.16,0-.18a3.38,3.38,0,0,1,.11-.34c0-.08,0,.06,0,.06l0-.09.09-.16.1-.16a.1.1,0,0,0,0,0c.05-.08-.09.09,0,0s.15-.17.23-.25l.07-.06c.08-.07,0,0,0,0s.11-.09.13-.1l.31-.17c.12-.06-.05,0-.05,0l.09,0,.16,0,.16,0,.1,0h-.05c.12,0,.25,0,.37,0h.17c.06,0,.08,0,0,0l.09,0a2.85,2.85,0,0,1,.39.11s.09.06,0,0,0,0,.05,0a1.29,1.29,0,0,1,.16.09.78.78,0,0,1,.15.1l.08,0s-.12-.1,0,0a3.7,3.7,0,0,1,.28.28s.05,0,0,0h0l0,0,.1.15.1.19,0,.06s-.06-.14,0,0,.08.26.11.39a.34.34,0,0,0,0,.1s0-.15,0-.05,0,.16,0,.24a.71.71,0,0,0,.71.71A.72.72,0,0,0,21.56,9a3.28,3.28,0,0,0-2.15-3,3.19,3.19,0,0,0-3.49,1A3.2,3.2,0,1,0,21.56,9a.72.72,0,0,0-.71-.71A.71.71,0,0,0,20.14,9Z"/><circle class="cls-1" cx="3.2" cy="3.2" r="2.5"/><path class="cls-1" d="M5,3.2v.2a.22.22,0,0,0,0,.08c0,.1,0-.14,0,0a3.58,3.58,0,0,1-.09.35s0,.17-.06.18.06-.14,0-.07l0,.09c0,.1-.11.2-.17.3s0,.07-.06.07.12-.13,0,0l-.11.13-.12.11-.07.06c-.08.07,0,0,0,0s-.24.16-.29.2l-.15.07c-.09.05,0,0,0,0l-.09,0a1.91,1.91,0,0,1-.34.1H3.45c-.14,0,0,0,0,0S3.33,5,3.3,5a2.32,2.32,0,0,1-.37,0H3L2.9,5l-.18,0-.18-.06-.07,0c-.09,0,.12.06,0,0L2.2,4.7s-.14-.08-.15-.11.11.1.06,0L2,4.57l-.24-.25c-.09-.1,0,0,0,0l-.06-.08-.08-.13L1.59,4l0-.09c-.05-.1,0,0,0,0s-.1-.28-.11-.33a1,1,0,0,1,0-.17s0-.1,0,0a.34.34,0,0,0,0-.1,2.16,2.16,0,0,1,0-.36s0,0,0-.08,0,0,0,0,0-.16,0-.18a3.38,3.38,0,0,1,.11-.34c0-.08,0,.06,0,.06a.79.79,0,0,0,0-.09l.09-.16a1.4,1.4,0,0,1,.1-.16l0-.05c.05-.08-.1.09,0,0S1.92,2,2,1.87l.07-.06c.07-.07,0,0,0,0s.12-.09.14-.1l.3-.17,0,0s.09,0,.09,0l.15-.05.17,0,.09,0h0c.12,0,.24,0,.36,0h.17c.07,0,.08,0,0,0l.1,0a2.38,2.38,0,0,1,.38.11s.1.06,0,0,0,0,0,0a.83.83,0,0,1,.16.09l.16.1.08.05s-.12-.1,0,0a3.57,3.57,0,0,1,.27.28s.06,0,0,0h0l0,0,.1.15.09.19,0,.06s0-.14,0,0A1.9,1.9,0,0,1,5,2.91S5,3,5,3s0-.15,0,0A1,1,0,0,1,5,3.2a.71.71,0,0,0,1.42,0,3.26,3.26,0,0,0-2.14-3,3.21,3.21,0,0,0-3.5,1A3.24,3.24,0,0,0,.45,4.86,3.26,3.26,0,0,0,3.87,6.34,3.23,3.23,0,0,0,6.4,3.21a.71.71,0,0,0-.71-.71A.72.72,0,0,0,5,3.2Z"/><circle class="cls-1" cx="3.21" cy="30.12" r="2.5"/><path class="cls-1" d="M5,30.12v.2a.22.22,0,0,0,0,.08c0,.1,0-.15,0,0s0,.23-.09.35a.55.55,0,0,1-.06.18s.06-.14,0-.07a.36.36,0,0,1,0,.09,2.75,2.75,0,0,1-.17.29.24.24,0,0,1-.06.08s.12-.14,0,0l-.11.12-.12.12-.07.06c-.08.07,0,0,0,0s-.24.16-.29.19l-.15.08c-.09.05,0,0,0,0s-.07,0-.09,0l-.34.1H3.46c-.14,0,0,0,0,0a.66.66,0,0,1-.2,0H3l-.1,0-.18,0-.18-.06-.07,0c-.09,0,.12.06,0,0l-.31-.16s-.14-.08-.15-.11.11.1.06,0L2,31.49l-.24-.25c-.09-.1,0,0,0,0l-.05-.08a1,1,0,0,1-.09-.13,1.09,1.09,0,0,1-.08-.15l-.05-.08c-.05-.1,0,0,0,0s-.1-.28-.11-.33,0-.11,0-.17,0-.1,0,.05a.34.34,0,0,0,0-.1,2.29,2.29,0,0,1,0-.37s0-.05,0-.07,0,.05,0,0,0-.16,0-.19.07-.22.11-.33,0,.06,0,.06,0-.08,0-.09l.09-.16a1.4,1.4,0,0,1,.1-.16l0,0c.05-.08-.09.09,0,0s.15-.17.24-.25l.07-.06c.08-.07,0,0,0,0s.11-.08.13-.09l.3-.17,0,0s.09,0,.09,0l.15,0,.17,0,.09,0c.1,0,0,0,0,0,.12,0,.24,0,.37,0h.17c.06,0,.07,0-.05,0l.1,0a2.38,2.38,0,0,1,.38.11s.1.06,0,0,0,0,0,0a.7.7,0,0,1,.17.09l.15.09.08.06s-.12-.1,0,0A3.57,3.57,0,0,1,4.6,29s.06,0,0,0h0l0,0a1.3,1.3,0,0,0,.1.15,1.74,1.74,0,0,0,.1.19l0,.06s-.05-.14,0,0a1.9,1.9,0,0,1,.11.39s0,.07,0,.09,0-.14,0,0a1,1,0,0,1,0,.24.71.71,0,0,0,1.42,0,3.25,3.25,0,0,0-2.14-3,3.21,3.21,0,0,0-3.5.95,3.2,3.2,0,0,0,3.11,5.21,3.23,3.23,0,0,0,2.53-3.13.71.71,0,0,0-.71-.71A.72.72,0,0,0,5,30.12Z"/></g></g></svg>